<svg xmlns="http://www.w3.org/2000/svg" version="1.1" xmlns:xlink="http://www.w3.org/1999/xlink" width="512" height="512" x="0" y="0" viewBox="0 0 512 512" style="enable-background:new 0 0 512 512" xml:space="preserve" class=""><g><path d="M512 257c0-128.966-96.908-238.572-222.717-254.904L276.039.377l-22.252 89.007 17.479 1.555C355.79 98.46 422 171.403 422 257c0 55.059-28.192 106.512-74.367 137.177l-38.542-51.389L266.789 512H436l-34.227-45.636C469.315 419.308 512 341.997 512 257zM90 257c0-55.3 28.824-108.559 74.388-139.149l38.521 51.361L245.211 0H76l34.233 45.644C41.853 93.414 0 172.938 0 257c0 127.696 95.748 236.421 222.717 252.903l13.244 1.719 22.252-89.007-17.479-1.555C156.21 413.54 90 341.476 90 257z" fill="#ffffff" opacity="1" data-original="#000000" class=""></path><circle cx="256" cy="197" r="45" fill="#ffffff" opacity="1" data-original="#000000" class=""></circle><path d="M181 317v15h150v-15c0-41.355-33.645-75-75-75s-75 33.645-75 75z" fill="#ffffff" opacity="1" data-original="#000000" class=""></path></g></svg>